<mxfile host="app.diagrams.net" agent="Mozilla/5.0 (Windows NT 10.0; Win64; x64) AppleWebKit/537.36 (KHTML, like Gecko) Chrome/127.0.0.0 Safari/537.36 OPR/113.0.0.0" version="24.7.10">
  <diagram name="Page-1" id="CJjzZW6GFW8Jc7LJ-Tnk">
    <mxGraphModel dx="996" dy="557" grid="1" gridSize="10" guides="1" tooltips="1" connect="1" arrows="1" fold="1" page="1" pageScale="1" pageWidth="850" pageHeight="1100" math="0" shadow="0">
      <root>
        <mxCell id="0" />
        <mxCell id="1" parent="0" />
        <mxCell id="mYzYQQQQqZzYGuWwW85p-3" style="edgeStyle=orthogonalEdgeStyle;rounded=0;orthogonalLoop=1;jettySize=auto;html=1;" edge="1" parent="1" source="mYzYQQQQqZzYGuWwW85p-1" target="mYzYQQQQqZzYGuWwW85p-12">
          <mxGeometry relative="1" as="geometry">
            <mxPoint x="90" y="100" as="targetPoint" />
          </mxGeometry>
        </mxCell>
        <mxCell id="mYzYQQQQqZzYGuWwW85p-1" value="Start" style="rounded=1;whiteSpace=wrap;html=1;" vertex="1" parent="1">
          <mxGeometry x="30" y="10" width="120" height="60" as="geometry" />
        </mxCell>
        <mxCell id="mYzYQQQQqZzYGuWwW85p-18" value="" style="edgeStyle=orthogonalEdgeStyle;rounded=0;orthogonalLoop=1;jettySize=auto;html=1;" edge="1" parent="1" source="mYzYQQQQqZzYGuWwW85p-12" target="mYzYQQQQqZzYGuWwW85p-17">
          <mxGeometry relative="1" as="geometry" />
        </mxCell>
        <mxCell id="mYzYQQQQqZzYGuWwW85p-12" value="get raw_materials&amp;nbsp;" style="rhombus;whiteSpace=wrap;html=1;" vertex="1" parent="1">
          <mxGeometry x="40" y="130" width="100" height="80" as="geometry" />
        </mxCell>
        <mxCell id="mYzYQQQQqZzYGuWwW85p-20" value="" style="edgeStyle=orthogonalEdgeStyle;rounded=0;orthogonalLoop=1;jettySize=auto;html=1;" edge="1" parent="1" source="mYzYQQQQqZzYGuWwW85p-17" target="mYzYQQQQqZzYGuWwW85p-19">
          <mxGeometry relative="1" as="geometry" />
        </mxCell>
        <mxCell id="mYzYQQQQqZzYGuWwW85p-43" style="edgeStyle=orthogonalEdgeStyle;rounded=0;orthogonalLoop=1;jettySize=auto;html=1;exitX=0;exitY=0.5;exitDx=0;exitDy=0;" edge="1" parent="1" source="mYzYQQQQqZzYGuWwW85p-17" target="mYzYQQQQqZzYGuWwW85p-12">
          <mxGeometry relative="1" as="geometry">
            <mxPoint y="150" as="targetPoint" />
            <Array as="points">
              <mxPoint x="20" y="280" />
              <mxPoint x="20" y="220" />
              <mxPoint x="60" y="220" />
            </Array>
          </mxGeometry>
        </mxCell>
        <mxCell id="mYzYQQQQqZzYGuWwW85p-17" value="if raw_materials == true0&amp;nbsp;" style="rhombus;whiteSpace=wrap;html=1;" vertex="1" parent="1">
          <mxGeometry x="40" y="240" width="100" height="80" as="geometry" />
        </mxCell>
        <mxCell id="mYzYQQQQqZzYGuWwW85p-22" value="" style="edgeStyle=orthogonalEdgeStyle;rounded=0;orthogonalLoop=1;jettySize=auto;html=1;" edge="1" parent="1" source="mYzYQQQQqZzYGuWwW85p-19" target="mYzYQQQQqZzYGuWwW85p-21">
          <mxGeometry relative="1" as="geometry" />
        </mxCell>
        <mxCell id="mYzYQQQQqZzYGuWwW85p-19" value="Shape the car body" style="whiteSpace=wrap;html=1;" vertex="1" parent="1">
          <mxGeometry x="210" y="250" width="120" height="60" as="geometry" />
        </mxCell>
        <mxCell id="mYzYQQQQqZzYGuWwW85p-24" value="" style="edgeStyle=orthogonalEdgeStyle;rounded=0;orthogonalLoop=1;jettySize=auto;html=1;" edge="1" parent="1" source="mYzYQQQQqZzYGuWwW85p-21" target="mYzYQQQQqZzYGuWwW85p-23">
          <mxGeometry relative="1" as="geometry" />
        </mxCell>
        <mxCell id="mYzYQQQQqZzYGuWwW85p-21" value="Paint the car body" style="whiteSpace=wrap;html=1;" vertex="1" parent="1">
          <mxGeometry x="210" y="350" width="120" height="60" as="geometry" />
        </mxCell>
        <mxCell id="mYzYQQQQqZzYGuWwW85p-27" value="" style="edgeStyle=orthogonalEdgeStyle;rounded=0;orthogonalLoop=1;jettySize=auto;html=1;" edge="1" parent="1" source="mYzYQQQQqZzYGuWwW85p-23" target="mYzYQQQQqZzYGuWwW85p-26">
          <mxGeometry relative="1" as="geometry" />
        </mxCell>
        <mxCell id="mYzYQQQQqZzYGuWwW85p-23" value="Put the engine" style="whiteSpace=wrap;html=1;" vertex="1" parent="1">
          <mxGeometry x="210" y="450" width="120" height="60" as="geometry" />
        </mxCell>
        <mxCell id="mYzYQQQQqZzYGuWwW85p-33" value="" style="edgeStyle=orthogonalEdgeStyle;rounded=0;orthogonalLoop=1;jettySize=auto;html=1;" edge="1" parent="1" source="mYzYQQQQqZzYGuWwW85p-26" target="mYzYQQQQqZzYGuWwW85p-32">
          <mxGeometry relative="1" as="geometry" />
        </mxCell>
        <mxCell id="mYzYQQQQqZzYGuWwW85p-26" value="Do all the wiring" style="whiteSpace=wrap;html=1;" vertex="1" parent="1">
          <mxGeometry x="210" y="540" width="120" height="50" as="geometry" />
        </mxCell>
        <mxCell id="mYzYQQQQqZzYGuWwW85p-35" value="" style="edgeStyle=orthogonalEdgeStyle;rounded=0;orthogonalLoop=1;jettySize=auto;html=1;" edge="1" parent="1" source="mYzYQQQQqZzYGuWwW85p-32" target="mYzYQQQQqZzYGuWwW85p-34">
          <mxGeometry relative="1" as="geometry" />
        </mxCell>
        <mxCell id="mYzYQQQQqZzYGuWwW85p-32" value="Put the tyre" style="whiteSpace=wrap;html=1;" vertex="1" parent="1">
          <mxGeometry x="210" y="620" width="120" height="40" as="geometry" />
        </mxCell>
        <mxCell id="mYzYQQQQqZzYGuWwW85p-37" value="" style="edgeStyle=orthogonalEdgeStyle;rounded=0;orthogonalLoop=1;jettySize=auto;html=1;" edge="1" parent="1" source="mYzYQQQQqZzYGuWwW85p-34" target="mYzYQQQQqZzYGuWwW85p-36">
          <mxGeometry relative="1" as="geometry" />
        </mxCell>
        <mxCell id="mYzYQQQQqZzYGuWwW85p-34" value="Start the car" style="whiteSpace=wrap;html=1;" vertex="1" parent="1">
          <mxGeometry x="210" y="680" width="120" height="50" as="geometry" />
        </mxCell>
        <mxCell id="mYzYQQQQqZzYGuWwW85p-39" value="" style="edgeStyle=orthogonalEdgeStyle;rounded=0;orthogonalLoop=1;jettySize=auto;html=1;" edge="1" parent="1" source="mYzYQQQQqZzYGuWwW85p-36" target="mYzYQQQQqZzYGuWwW85p-38">
          <mxGeometry relative="1" as="geometry" />
        </mxCell>
        <mxCell id="mYzYQQQQqZzYGuWwW85p-36" value="Print You can drive the car safely" style="shape=parallelogram;perimeter=parallelogramPerimeter;whiteSpace=wrap;html=1;fixedSize=1;" vertex="1" parent="1">
          <mxGeometry x="157.5" y="780" width="225" height="40" as="geometry" />
        </mxCell>
        <mxCell id="mYzYQQQQqZzYGuWwW85p-38" value="End" style="rounded=1;whiteSpace=wrap;html=1;" vertex="1" parent="1">
          <mxGeometry x="220" y="850" width="120" height="60" as="geometry" />
        </mxCell>
        <mxCell id="mYzYQQQQqZzYGuWwW85p-42" value="Yes" style="text;html=1;align=center;verticalAlign=middle;resizable=0;points=[];autosize=1;strokeColor=none;fillColor=none;" vertex="1" parent="1">
          <mxGeometry x="140" y="248" width="40" height="30" as="geometry" />
        </mxCell>
        <mxCell id="mYzYQQQQqZzYGuWwW85p-44" value="No" style="text;html=1;align=center;verticalAlign=middle;resizable=0;points=[];autosize=1;strokeColor=none;fillColor=none;" vertex="1" parent="1">
          <mxGeometry x="20" y="248" width="40" height="30" as="geometry" />
        </mxCell>
      </root>
    </mxGraphModel>
  </diagram>
</mxfile>
